<?xml version="1.0" encoding="utf-8"?>
<!-- Generator: Adobe Illustrator 24.0.1, SVG Export Plug-In . SVG Version: 6.00 Build 0)  -->
<svg version="1.1" id="Layer_1" xmlns="http://www.w3.org/2000/svg" xmlns:xlink="http://www.w3.org/1999/xlink" x="0px" y="0px"
	 viewBox="0 0 150 25" style="enable-background:new 0 0 150 25;" xml:space="preserve">
<style type="text/css">
	.st0{fill:#662D91;}
	.st1{fill:none;stroke:#662D91;stroke-miterlimit:10;}
</style>
<polygon class="st0" points="19.5,23.1 12.2,19.5 5.1,23.4 6.4,15.4 0.4,9.8 8.5,8.5 11.9,1.2 15.6,8.4 23.7,9.4 18,15.2 "/>
<polygon class="st0" points="50.3,23.3 43,19.6 35.9,23.5 37.2,15.5 31.2,9.9 39.2,8.6 42.7,1.3 46.4,8.5 54.5,9.5 48.8,15.3 "/>
<polygon class="st0" points="81.9,23.3 74.7,19.6 67.5,23.5 68.8,15.5 62.9,9.9 70.9,8.6 74.3,1.3 78,8.5 86.1,9.5 80.4,15.3 "/>
<polygon class="st0" points="113.5,23.3 106.3,19.6 99.2,23.5 100.4,15.5 94.5,9.9 102.5,8.6 105.9,1.3 109.6,8.5 117.7,9.5 
	112,15.3 "/>
<polygon class="st1" points="144.2,22.1 137.3,18.7 130.5,22.4 131.7,14.8 126.1,9.5 133.7,8.3 137,1.3 140.5,8.1 148.1,9.1 
	142.7,14.6 "/>
<path class="st0" d="M133.4,16.1c-0.1-1.8-0.1-3.6-0.1-5.4c0-0.8,0-1.5,0-2.3l-7,1.2l5.5,5.2l-1.1,7.4l2.5-1.4
	c0.1-0.8,0.1-1.7,0.2-2.5C133.3,17.5,133.3,16.8,133.4,16.1z"/>
<path class="st0" d="M134,20.4V8h-1.4c-0.2,0.4-0.4,0.8-0.6,1.2V21h1.2C133.5,20.8,133.7,20.6,134,20.4z"/>
</svg>
