<?xml version="1.0" encoding="utf-8"?>
<!-- Generator: Adobe Illustrator 24.0.1, SVG Export Plug-In . SVG Version: 6.00 Build 0)  -->
<svg version="1.1" id="Layer_1" xmlns="http://www.w3.org/2000/svg" xmlns:xlink="http://www.w3.org/1999/xlink" x="0px" y="0px"
	 viewBox="0 0 1366 1268" enable-background="new 0 0 1366 1268" xml:space="preserve">
<path fill="#F2F2F2" d="M1187.6,593.2c0,123,0.1,246,0,369c-0.1,79.2-47.6,126.6-126.9,126.7c-246,0.1-492,0.1-738.1,0
	c-80.3,0-127.9-47.9-127.9-128.8c-0.1-245.2-0.1-490.5,0-735.7c0-81,47-128.3,127.7-128.3c246-0.1,492-0.1,738.1,0
	c81.2,0,127.1,46.4,127.2,128.1C1187.7,347.2,1187.6,470.2,1187.6,593.2z M843.9,1011.1c73.4,0,143.6,0.1,213.8,0
	c40.7-0.1,52.7-12.2,52.7-52.9c0-243.6,0-487.2,0-730.8c0-42.4-11.6-54-53.7-54c-242.8,0-485.6,0-728.4,0
	c-44.2,0-55.8,11.2-55.8,54.8c-0.1,242.8-0.1,485.6,0,728.4c0,42.7,11.7,54.6,53.8,54.6c123.8,0.1,247.6,0.1,371.4,0
	c7.6,0,15.2-0.8,22.6-1.1c0-95.2,0-187.4,0-282.9c-41.7,0-81.9,0-121.6,0c0-41.1,0-79.1,0-119.3c41.4,0,81.1,0,123.2,0
	c0-42.8-0.3-83.4,0.1-123.9c0.6-58.5,23.3-106.5,68.3-144.3c56.8-47.6,122.6-42.7,189.1-33.3c3.6,0.5,8.8,7.4,8.9,11.4
	c0.7,33.2,0.4,66.5,0.4,101.9c-31.2,0-59-0.6-86.9,0.2c-32.8,0.9-55.2,18-57.2,49.7c-2.9,45.1-0.7,90.4-0.7,139.6c46.2,0,91,0,138,0
	c-5.5,41.9-10.4,79.7-15.7,119.7c-41.7,0-81.3,0-122.2,0C843.9,823.4,843.9,915.6,843.9,1011.1z"/>
</svg>
