<?xml version="1.0" encoding="utf-8"?>
<!-- Generator: Adobe Illustrator 24.0.1, SVG Export Plug-In . SVG Version: 6.00 Build 0)  -->
<svg version="1.1" id="Layer_1" xmlns="http://www.w3.org/2000/svg" xmlns:xlink="http://www.w3.org/1999/xlink" x="0px" y="0px"
	 viewBox="0 0 1366 1268" enable-background="new 0 0 1366 1268" xml:space="preserve">
<g>
	<path fill="#F2F2F2" d="M690.4,131.8c77.3,2.2,154.6,1.7,231.5,7.3c135.6,9.9,233.2,103.1,239,239.2c6.5,150.3,7,301.3,0.2,451.5
		c-6.5,143.8-106.9,238.6-251.6,243.3c-142.3,4.6-284.9,4.1-427.2,0c-99.7-2.9-181.9-45.8-225.6-140.2
		c-16.7-36.1-27.9-78-28.9-117.6c-3.4-139.4-3.9-278.9-0.5-418.3c2.3-94,38.6-175,125.1-221.6c34.9-18.8,76.1-31.4,115.6-35.3
		C541.8,132.9,616.3,134.1,690.4,131.8z M695,989.8c0-0.1,0-0.2,0-0.3c69.7,0,139.5,2.5,209.1-0.6c103-4.6,168.7-64.9,172.1-167.2
		c4.7-144.4,4.5-289.1-0.1-433.5c-3.2-99.3-67.4-161.3-167.2-164c-141.5-3.8-283.2-4-424.7-0.1c-104.6,2.9-169.1,67.8-171.9,172.4
		c-3.7,139.3-2.9,278.9,0,418.2c1.4,66.3,28,124.1,92.6,153.3c26.4,11.9,56.7,19.4,85.6,20.7C558.5,991.8,626.8,989.8,695,989.8z"/>
	<path fill="#F2F2F2" d="M697.1,847.7c-134.5-0.2-241.4-107.4-241.3-242.2c0.1-134,108.1-242.5,241.6-242.6
		c134-0.1,243.7,110,243.2,244.1C940,740.7,831.6,847.9,697.1,847.7z M697.4,763.2c86.8,0.1,156.8-69.6,157.2-156.6
		c0.4-87.3-68.5-156.9-155.9-157.4c-88.2-0.5-158.8,69.5-158.6,157.2C540.3,692.7,610.9,763.1,697.4,763.2z"/>
	<path fill="#F2F2F2" d="M950.3,410.1c-31.3,0.3-56.7-24.6-57.1-55.8c-0.4-31.6,24-56.3,55.9-56.7c31.9-0.3,56.8,23.8,57.2,55.4
		C1006.6,384.3,981.6,409.8,950.3,410.1z"/>
</g>
</svg>
