<?xml version="1.0" encoding="utf-8"?>
<!-- Generator: Adobe Illustrator 24.0.1, SVG Export Plug-In . SVG Version: 6.00 Build 0)  -->
<svg version="1.1" id="Layer_1" xmlns="http://www.w3.org/2000/svg" xmlns:xlink="http://www.w3.org/1999/xlink" x="0px" y="0px"
	 viewBox="0 0 1366 1268" enable-background="new 0 0 1366 1268" xml:space="preserve">
<path fill="#F2F2F2" d="M711.8,1162c-299.5,2.4-544.7-246.3-543.7-546.6c1-293,237.5-546.8,551.6-543.6
	c301.6,3,547.1,248.5,539.2,561.2C1251.3,929.9,1006.7,1165.5,711.8,1162z M715.3,769.8c39.9,29.5,78.3,57.8,116.6,86.1
	c26,19.2,47.2,12.2,55.3-18.9c7.9-30.6,15.7-61.2,22.6-92c24.3-109.1,49-218.1,71.8-327.5c7.6-36.3-3.6-44.5-38.3-31.9
	c-130.9,47.4-261.7,95-392.3,143.3c-46.2,17.1-91.8,35.5-137.1,54.9c-8.4,3.6-13.6,14.7-20.2,22.4c7.4,5.8,14.1,13.8,22.5,16.9
	c32.6,11.9,65.4,23.4,98.8,32.5c19.5,5.3,28.8,16.1,34.9,34.8c14.4,44,30.9,87.2,46.6,130.8c13.9,38.4,21.1,39.9,51.4,11.4
	C669.7,812,691.7,791.7,715.3,769.8z"/>
</svg>
