<?xml version="1.0" encoding="utf-8"?>
<!-- Generator: Adobe Illustrator 24.0.1, SVG Export Plug-In . SVG Version: 6.00 Build 0)  -->
<svg version="1.1" id="Layer_1" xmlns="http://www.w3.org/2000/svg" xmlns:xlink="http://www.w3.org/1999/xlink" x="0px" y="0px"
	 viewBox="0 0 1366 1268" enable-background="new 0 0 1366 1268" xml:space="preserve">
<g>
	<path fill="#F2F2F2" d="M209.7,1092c22.6-67.6,42.2-131.3,65.5-193.6c13.7-36.8,14.1-67-3.5-105.3C138,502.6,314,177,622.7,123
		c253.8-44.4,503.2,129.3,547.3,379.4c46.6,264.9-117.6,507.6-380.6,558.2c-98.8,19-196.3,8.2-287.7-36.9
		c-20.8-10.2-38.5-12.4-60.8-4.8c-70.5,24-141.7,45.7-212.7,68.3C223.9,1088.5,219.5,1089.4,209.7,1092z M331.4,971
		c7.6-1.1,12.1-1.2,16.1-2.5c36.5-11.7,73.2-23.1,109.4-35.8c17.1-6,31.3-5.4,47.8,4.2c248.7,144.2,569.8-21.5,593.3-305.6
		c25.1-303.3-268.7-519.1-550.9-404.5c-222.9,90.5-312.7,374.1-181.4,575.9c11.6,17.8,12.7,32.2,5.8,50.9
		C357.5,891.4,345.3,929.9,331.4,971z"/>
	<path fill="#F2F2F2" d="M550.8,362.1c26.1-5.2,39.1,6.7,46.1,30.5c6.4,22,15,43.6,24.6,64.5c11.6,25.2,6.2,45.1-12.4,64.6
		c-28,29.3-27,29.6-5.5,63.6c35.4,56.2,83.1,97.8,143.4,125.8c15.2,7.1,25.9,5.3,35.9-7.9c7.4-9.7,17.5-17.7,24-27.9
		c13.8-22.1,30.5-21.6,50.8-10.2c25.4,14.3,51.8,26.9,76.9,41.8c6.8,4,14.9,13.9,14.5,20.6c-1.9,28.7-8.5,56.2-34.7,74.3
		c-40.5,28-82.3,34.9-130.7,19.6c-146.4-46.1-243.3-145.3-305-281.4c-25.7-56.8-19.9-113.3,26.6-159.5
		c11.5-11.4,28.7-16.9,43.3-25.1C549.2,357.6,550,359.8,550.8,362.1z"/>
</g>
</svg>
